<svg xmlns="http://www.w3.org/2000/svg" viewBox="0 0 2409.17 2470.03"><defs><style>.cls-1{fill:#2e3192;}.cls-2{fill:#0071bc;}.cls-3{fill:#00a99d;}.cls-4{fill:#1b1464;}.cls-5{fill:#29abe2;}.cls-6{fill:#73c1dd;}</style></defs><title>Recurso 11</title><g id="Capa_2" data-name="Capa 2"><g id="Capa_1-2" data-name="Capa 1"><polygon class="cls-1" points="457.13 786.03 1223.96 323.46 1982.13 789.03 2309.13 635.03 1223.96 0 130.13 632.03 457.13 786.03"/><polygon class="cls-2" points="1093.13 2153.03 395.43 1853.79 327.16 976.54 0 822.96 134.55 2045.02 1093.13 2470.03 1093.13 2153.03"/><polygon class="cls-3" points="1323.13 2153.03 2013.73 1856.79 2082.01 979.54 2409.17 825.96 2274.61 2048.02 1323.13 2470.03 1323.13 2153.03"/><path class="cls-4" d="M833,636s198.55,734.57,503.05,1004.54L1660.24,1398Z"/><polygon class="cls-2" points="882.48 1978.03 1489.12 1121.03 1289.79 996.25 882.48 1978.03"/><path class="cls-3" d="M882.48,1978l833.06-620c44.74-33.3,39.11-102-10.46-127.54l-286.59-147.86Z"/><path class="cls-5" d="M833,636s350.8,622.34,655.3,892.31L1736,1343.06c37.3-27.91,35.7-84.34-3.11-110.09Z"/><path class="cls-6" d="M833,636s481.41,524.75,785.91,794.72l117-87.69c37.3-27.91,35.7-84.34-3.11-110.09Z"/></g></g></svg>